# xmcd CD database file
#
# Track frame offsets:
#	150
#	29571
#	48256
#	62344
#	87456
#	95307
#	131193
#	138645
#	155507
#	168146
#	179119
#	192862
#	217288
#	234631
#	250309
#
# Disc length: 3545 seconds
#
# Revision: 0
# Processed by: cddbd v1.5.2PL0 Copyright (c) Steve Scherf et al.
# Submitted via: CDex 1.51
#
DISCID=de0dd70f
DTITLE=Alexander von Schlippenbach , Manfred Schoof - Blue Hawk
DYEAR=2011
DGENRE=Jazz
TTITLE0=Duolog
TTITLE1=Acht
TTITLE2=Deforested
TTITLE3=Twelve Tone Tales
TTITLE4=Fast Winds 1
TTITLE5=Adjustment
TTITLE6=Fast Winds 2
TTITLE7=Canto Dedicato
TTITLE8=Pierrot's Morning Exercises
TTITLE9=Fast Winds 3
TTITLE10=Still Water
TTITLE11=Autumn In New York
TTITLE12=St. Catherine
TTITLE13=Spread
TTITLE14=Blue Hawk
EXTD=YEAR: 2011
EXTT0=
EXTT1=
EXTT2=
EXTT3=
EXTT4=
EXTT5=
EXTT6=
EXTT7=
EXTT8=
EXTT9=
EXTT10=
EXTT11=
EXTT12=
EXTT13=
EXTT14=
PLAYORDER=
